<?xml version="1.0" encoding="UTF-8"?>
<!DOCTYPE svg PUBLIC "-//W3C//DTD SVG 1.1//EN" "http://www.w3.org/Graphics/SVG/1.1/DTD/svg11.dtd">
<svg xmlns="http://www.w3.org/2000/svg" version="1.1" width="4009px" height="4320px" style="shape-rendering:geometricPrecision; text-rendering:geometricPrecision; image-rendering:optimizeQuality; fill-rule:evenodd; clip-rule:evenodd" xmlns:xlink="http://www.w3.org/1999/xlink">
<g><path style="opacity:1" fill="currentcolor" d="M 22.5,-0.5 C 357.833,-0.5 693.167,-0.5 1028.5,-0.5C 1721.17,0.833333 2413.83,0.833333 3106.5,-0.5C 3399.17,-0.5 3691.83,-0.5 3984.5,-0.5C 3990.27,0.160986 3995.94,1.66099 4001.5,4C 4006.34,9.69547 4008.67,16.1955 4008.5,23.5C 4008.5,41.5 4008.5,59.5 4008.5,77.5C 4007.78,164.669 4006.95,252.003 4006,339.5C 4004.26,662.218 3932.26,968.218 3790,1257.5C 3633.17,1578.51 3410.33,1844.68 3121.5,2056C 3071.32,2091.25 3020.65,2125.75 2969.5,2159.5C 3082.23,2231.37 3188.9,2311.53 3289.5,2400C 3584.07,2663.74 3790.57,2985.24 3909,3364.5C 3959.51,3521.04 3990.51,3681.37 4002,3845.5C 4005.22,3892.28 4007.38,3938.95 4008.5,3985.5C 4008.5,4091.5 4008.5,4197.5 4008.5,4303.5C 4007.06,4311.61 4002.39,4316.94 3994.5,4319.5C 3794.83,4319.5 3595.17,4319.5 3395.5,4319.5C 3392.06,4318.06 3388.4,4317.06 3384.5,4316.5C 3383.96,4215.83 3383.13,4115.16 3382,4014.5C 3388,3765.87 3333,3531.87 3217,3312.5C 2995.39,2889.25 2651.56,2621.25 2185.5,2508.5C 2170.1,2504.1 2154.43,2501.1 2138.5,2499.5C 2137.56,2499.61 2136.72,2499.94 2136,2500.5C 2097.98,2712.28 2032.98,2915.28 1941,3109.5C 1797.92,3402.64 1597.75,3650.14 1340.5,3852C 1214.82,3951.2 1079.82,4036.53 935.5,4108C 681.646,4229.72 413.979,4298.72 132.5,4315C 101.015,4316.67 69.6818,4318.17 38.5,4319.5C 26.1667,4319.5 13.8333,4319.5 1.5,4319.5C 1.5,4112.5 1.5,3905.5 1.5,3698.5C 147.364,3693.64 290.698,3672.14 431.5,3634C 665.546,3566.94 870.546,3450.61 1046.5,3285C 1171.33,3165.58 1275.49,3030.75 1359,2880.5C 1466.63,2678 1525.29,2462 1535,2232.5C 1535.88,2207.27 1536.71,2182.1 1537.5,2157C 1537.52,2062.04 1537.35,1966.87 1537,1871.5C 1538.3,1856.54 1546.46,1848.7 1561.5,1848C 1652.17,1847.67 1742.83,1847.33 1833.5,1847C 2336.39,1843.61 2744.55,1647.44 3058,1258.5C 3202.64,1075.16 3299.64,868.497 3349,638.5C 3349.77,634.11 3349.61,629.777 3348.5,625.5C 2945.83,624.5 2543.17,624.167 2140.5,624.5C 2102.86,849.246 2035.03,1064.25 1937,1269.5C 1812.91,1522.37 1644.75,1741.87 1432.5,1928C 1309.32,2034.16 1176.98,2127.5 1035.5,2208C 749.477,2365.1 443.144,2451.77 116.5,2468C 78.5107,2469.59 40.5107,2470.76 2.5,2471.5C 2.33333,2264.5 2.5,2057.5 3,1850.5C 511.251,1836.82 920.585,1630.82 1231,1232.5C 1352.94,1070.92 1438.94,891.255 1489,693.5C 1494.63,670.332 1500.13,647.165 1505.5,624C 1004.17,623.5 502.833,623.333 1.5,623.5C 1.05045,615.335 0.383784,607.335 -0.5,599.5C -0.5,406.833 -0.5,214.167 -0.5,21.5C 1.95633,8.71017 9.623,1.37684 22.5,-0.5 Z"/></g>
</svg>
